<?xml version="1.0" encoding="UTF-8" standalone="no"?>
<!-- Uploaded to: SVG Repo, www.svgrepo.com, Generator: SVG Repo Mixer Tools -->

<svg
   width="800px"
   height="800px"
   viewBox="0 0 512 512"
   version="1.1"
   id="svg1"
   sodipodi:docname="item-add.svg"
   inkscape:version="1.3.2 (091e20e, 2023-11-25, custom)"
   xmlns:inkscape="http://www.inkscape.org/namespaces/inkscape"
   xmlns:sodipodi="http://sodipodi.sourceforge.net/DTD/sodipodi-0.dtd"
   xmlns="http://www.w3.org/2000/svg"
   xmlns:svg="http://www.w3.org/2000/svg">
  <defs
     id="defs1" />
  <sodipodi:namedview
     id="namedview1"
     pagecolor="#ffffff"
     bordercolor="#000000"
     borderopacity="0.25"
     inkscape:showpageshadow="2"
     inkscape:pageopacity="0.0"
     inkscape:pagecheckerboard="0"
     inkscape:deskcolor="#d1d1d1"
     inkscape:zoom="1.01625"
     inkscape:cx="400.492"
     inkscape:cy="400"
     inkscape:window-width="1920"
     inkscape:window-height="1009"
     inkscape:window-x="1912"
     inkscape:window-y="-8"
     inkscape:window-maximized="1"
     inkscape:current-layer="scheduler" />
  <title
     id="title1">new-indicator</title>
  <g
     id="Page-1"
     stroke="none"
     stroke-width="1"
     fill="none"
     fill-rule="evenodd">
    <g
       id="scheduler"
       fill="#000000"
       transform="translate(85.333333, 85.333333)">
      <g
         id="g1">
        <g
           id="g2">
          <path
             id="Combined-Shape"
             d="M 149.33292 85.332917 L 149.33292 149.33292 L 85.332917 149.33292 L 85.332917 192.00042 L 149.33292 191.99917 L 149.33292 256.00042 L 192.00042 256.00042 L 191.99917 191.99917 L 256.00042 192.00042 L 256.00042 149.33292 L 191.99917 149.33292 L 192.00042 85.332917 L 149.33292 85.332917 z "
             style="fill:#17e5ae;fill-opacity:1" />
          <path
             id="path3"
             d="M 170.66667 0.000417 C 76.410164 0.000417 0.000417 76.410164 0.000417 170.66667 C 0.000417 264.92317 76.410164 341.33292 170.66667 341.33292 C 264.92317 341.33292 341.33292 264.92317 341.33292 170.66667 C 341.33292 76.410164 264.92317 0.000417 170.66667 0.000417 z M 170.66667 42.666667 C 241.35904 42.666667 298.66667 99.974289 298.66667 170.66667 C 298.66667 241.35904 241.35904 298.66667 170.66667 298.66667 C 99.974289 298.66667 42.666667 241.35904 42.666667 170.66667 C 42.666667 99.974289 99.974289 42.666667 170.66667 42.666667 z " />
        </g>
      </g>
    </g>
  </g>
</svg>
