<?xml version="1.0" encoding="UTF-8" standalone="no"?>
<!-- Uploaded to: SVG Repo, www.svgrepo.com, Generator: SVG Repo Mixer Tools -->

<svg
   width="800px"
   height="800px"
   viewBox="0 0 512 512"
   version="1.1"
   id="svg1"
   sodipodi:docname="item-remove.svg"
   inkscape:version="1.3.2 (091e20e, 2023-11-25, custom)"
   xmlns:inkscape="http://www.inkscape.org/namespaces/inkscape"
   xmlns:sodipodi="http://sodipodi.sourceforge.net/DTD/sodipodi-0.dtd"
   xmlns="http://www.w3.org/2000/svg"
   xmlns:svg="http://www.w3.org/2000/svg">
  <defs
     id="defs1" />
  <sodipodi:namedview
     id="namedview1"
     pagecolor="#ffffff"
     bordercolor="#000000"
     borderopacity="0.25"
     inkscape:showpageshadow="2"
     inkscape:pageopacity="0.0"
     inkscape:pagecheckerboard="0"
     inkscape:deskcolor="#d1d1d1"
     inkscape:zoom="1.01625"
     inkscape:cx="290.2829"
     inkscape:cy="357.68758"
     inkscape:window-width="1920"
     inkscape:window-height="1009"
     inkscape:window-x="-8"
     inkscape:window-y="-8"
     inkscape:window-maximized="1"
     inkscape:current-layer="g2" />
  <title
     id="title1">new-indicator</title>
  <g
     id="Page-1"
     stroke="none"
     stroke-width="1"
     fill="none"
     fill-rule="evenodd">
    <g
       id="scheduler"
       fill="#000000"
       transform="translate(85.333333, 85.333333)">
      <g
         id="g1">
        <g
           id="g2">
          <path
             id="Combined-Shape"
             d="M 149.33292,149.33292 H 85.332917 v 42.6675 l 64.000003,-0.001 h 42.66625 l 64.00125,0.001 v -42.6675 h -64.00125 z"
             style="fill:#e51760;fill-opacity:1"
             sodipodi:nodetypes="ccccccccc" />
          <path
             id="path3"
             d="m 170.66667,-42.823691 c -117.907642,0 -213.490361,95.582719 -213.490361,213.490361 0,117.90764 95.582719,213.49036 213.490361,213.49036 117.90764,0 213.49036,-95.58272 213.49036,-213.49036 0,-117.907642 -95.58272,-213.490361 -213.49036,-213.490361 z m 0,53.372198 c 88.43072,0 160.11816,71.68743 160.11816,160.118163 0,88.43072 -71.68744,160.11816 -160.11816,160.11816 -88.430733,0 -160.118163,-71.68744 -160.118163,-160.11816 0,-88.430733 71.68743,-160.118163 160.118163,-160.118163 z"
             style="stroke-width:1.25092" />
        </g>
      </g>
    </g>
  </g>
</svg>
