<?xml version="1.0" encoding="UTF-8" standalone="no"?>
<!-- Uploaded to: SVG Repo, www.svgrepo.com, Generator: SVG Repo Mixer Tools -->

<svg
   width="800px"
   height="800px"
   viewBox="0 0 512 512"
   version="1.1"
   id="svg1"
   sodipodi:docname="run.svg"
   inkscape:version="1.3.2 (091e20e, 2023-11-25, custom)"
   xmlns:inkscape="http://www.inkscape.org/namespaces/inkscape"
   xmlns:sodipodi="http://sodipodi.sourceforge.net/DTD/sodipodi-0.dtd"
   xmlns="http://www.w3.org/2000/svg"
   xmlns:svg="http://www.w3.org/2000/svg">
  <defs
     id="defs1" />
  <sodipodi:namedview
     id="namedview1"
     pagecolor="#ffffff"
     bordercolor="#000000"
     borderopacity="0.25"
     inkscape:showpageshadow="2"
     inkscape:pageopacity="0.0"
     inkscape:pagecheckerboard="0"
     inkscape:deskcolor="#d1d1d1"
     inkscape:zoom="1.01625"
     inkscape:cx="400.492"
     inkscape:cy="400"
     inkscape:window-width="1920"
     inkscape:window-height="1009"
     inkscape:window-x="-8"
     inkscape:window-y="-8"
     inkscape:window-maximized="1"
     inkscape:current-layer="svg1" />
  <title
     id="title1">circle-play</title>
  <g
     id="Page-1"
     stroke="none"
     stroke-width="1"
     fill="none"
     fill-rule="evenodd">
    <g
       id="icon"
       fill="#000000"
       transform="translate(42.666667, 42.666667)">
      <g
         id="g1">
        <g
           id="g2">
          <path
             id="Combined-Shape"
             d="M 149.33333 127.99958 L 149.33333 298.66708 L 319.99958 213.33333 L 149.33333 127.99958 z "
             style="fill:#17e5ae;fill-opacity:1" />
          <path
             id="path1"
             d="M 213.33333 -0.000417 C 95.512705 -0.000417 -0.000417 95.512705 -0.000417 213.33333 C -0.000417 331.15396 95.512705 426.66708 213.33333 426.66708 C 331.15396 426.66708 426.66708 331.15396 426.66708 213.33333 C 426.66708 95.512705 331.15396 -0.000417 213.33333 -0.000417 z M 213.33333 42.667083 C 307.58984 42.667083 383.99958 119.07683 383.99958 213.33333 C 383.99958 307.58984 307.58984 383.99958 213.33333 383.99958 C 119.07683 383.99958 42.667083 307.58984 42.667083 213.33333 C 42.667083 119.07683 119.07683 42.667083 213.33333 42.667083 z " />
        </g>
      </g>
    </g>
  </g>
</svg>
